<svg version="1" xmlns="http://www.w3.org/2000/svg" width="346.667" height="346.667" viewBox="0 0 260.000000 260.000000"><path d="M112.7 15.6c-.1.1-2.3.4-4.8.7-39 4.6-69 39-68.3 78.2.2 10.3.3 11.1 3 20.3 4.7 16.2 16.7 31.7 32.2 41.5 3.4 2.1 6.2 4.5 6.2 5.2 0 .7-.8 2.3-1.8 3.6-1 1.3-3.4 5.1-5.2 8.4-3 5.4-10.3 17.8-24.3 41.5-2.7 4.7-5.9 10.1-7 12-1 1.9-3.7 6.5-5.8 10.2-2.2 3.6-3.9 6.8-3.9 7 0 .6 55.9.3 56.5-.4.5-.5 31.3-53.2 41-70.3l2.3-4 12.6-.1 12.6-.2V244.5h52.5l.2-112.5c.1-61.9 0-113.4-.2-114.5-.4-2-1.2-2-49-2-26.8 0-48.7.1-48.8.1zm44.1 49.3c.9.1 1.2 6.6 1.2 29 0 22.2-.3 29-1.2 29.3-.7.2-10.8.4-22.3.3-18.7-.2-21.6-.4-25.6-2.2-5.8-2.6-10.9-7.7-13.9-13.9-3.4-7-3.4-19.8 0-26.8 4.1-8.5 11-14 19.2-15.4 3-.5 35.2-.7 42.6-.3z"/></svg>