<?xml version="1.0" encoding="utf-8"?>
<!-- Generator: Adobe Illustrator 20.1.0, SVG Export Plug-In . SVG Version: 6.00 Build 0)  -->
<svg version="1.1" id="Слой_1" xmlns="http://www.w3.org/2000/svg" xmlns:xlink="http://www.w3.org/1999/xlink" x="0px" y="0px"
	 viewBox="0 0 400 85" style="enable-background:new 0 0 400 85;" xml:space="preserve">
<g>
	<rect fill="#FFFFFF" x="8.5" y="17.9" width="11.5" height="50.2"/>
	<polygon fill="#FFFFFF" points="63.2,45.2 43.8,17.9 35.2,17.9 35.2,68.1 46.7,68.1 46.7,40.9 66.1,68.1 74.7,68.1 74.7,17.9 63.2,17.9 	"/>
	<polygon fill="#FFFFFF" points="90,68.1 101.5,68.1 101.5,49.7 120.1,49.7 120.1,38.7 101.5,38.7 101.5,29 120.5,29 120.5,17.9 90,17.9 	"/>
	<path fill="#FFFFFF" d="M157.9,16.9c-14.4,0-26.1,11.3-26.1,26.1c0,14.8,11.7,26.1,26.1,26.1S184,57.8,184,43C184,28.3,172.3,16.9,157.9,16.9z
		 M157.9,57.9c-8.2,0-14.6-6-14.6-14.9c0-9,6.5-14.9,14.6-14.9c8.2,0,14.6,6,14.6,14.9C172.6,52,166.1,57.9,157.9,57.9z"/>
	<path fill="#FFFFFF" d="M195.6,35.1c0,6.2,3.7,11.8,9.3,14.6l-10.7,18.4h12.3l9.5-16.5h5.4v16.5h11.5V17.9h-20.1C203.3,17.9,195.6,25.6,195.6,35.1
		z M221.5,41.6h-8.6c-3.2,0-5.7-2.8-5.7-6.5c0-3.7,2.6-6.5,5.7-6.5h8.6V41.6z"/>
	<path fill="#FFFFFF" d="M271.2,28.1c5.1,0,9.4,2.3,11.6,6.2l9.9-5.7c-4.4-7.1-12.4-11.6-21.5-11.6c-15.1,0-26.1,11.3-26.1,26.1
		c0,14.8,11,26.1,26.1,26.1c9.2,0,17.2-4.5,21.5-11.6l-9.9-5.7c-2.2,3.9-6.5,6.2-11.6,6.2c-8.9,0-14.6-6-14.6-14.9
		C256.6,34.1,262.3,28.1,271.2,28.1z"/>
	<polygon fill="#FFFFFF" points="316.3,48.2 334.2,48.2 334.2,37.3 316.3,37.3 316.3,29 336,29 336,17.9 304.8,17.9 304.8,68.1 336.4,68.1 
		336.4,57.1 316.3,57.1 	"/>
	<path fill="#FFFFFF" d="M369.6,17.9h-20.1v50.2h20.1c13.8,0,24.4-10.9,24.4-25.1C394,28.8,383.5,17.9,369.6,17.9z M369.6,57.1H361V29h8.6
		c7.9,0,13.3,5.4,13.3,14.1C383,51.6,377.5,57.1,369.6,57.1z"/>
</g>
</svg>
